<?xml version="1.0" standalone="no"?>
<!DOCTYPE svg PUBLIC "-//W3C//DTD SVG 20010904//EN" "http://www.w3.org/TR/2001/REC-SVG-20010904/DTD/svg10.dtd">
<!-- Created using Krita: http://krita.org -->
<svg xmlns="http://www.w3.org/2000/svg" 
    xmlns:xlink="http://www.w3.org/1999/xlink"
    xmlns:krita="http://krita.org/namespaces/svg/krita"
    xmlns:sodipodi="http://sodipodi.sourceforge.net/DTD/sodipodi-0.dtd"
    width="540pt"
    height="252pt"
    viewBox="0 0 540 252">
<defs/>
<circle id="shape1" transform="matrix(1.0000000060119 0 0 1.0000001046829 188.516470157187 75.8002798208773)" r="55.8" cx="55.8" cy="55.8" fill="#ffffff" stroke="#a7f192" stroke-width="12.0312" stroke-linecap="square" stroke-linejoin="bevel"/><path id="shape2" transform="matrix(0.999999963384496 0 0 1.00000012075508 106.297945764054 154.100301485438)" fill="none" stroke="#a7f192" stroke-width="12.0312" stroke-linecap="square" stroke-linejoin="miter" stroke-miterlimit="2" d="M76.68 0L0 26.28"/><path id="shape0" transform="matrix(-1.00000007833951 0 0 -0.99999993323187 540.000027805823 251.999997319867)" opacity="0.6" fill="#aee5d4" fill-rule="evenodd" stroke="#aee5d4" stroke-width="0.72" stroke-linecap="square" stroke-linejoin="bevel" d="M0 0L540.911 0L540.911 251.287C511.506 216.569 527.795 196.929 475.104 164.691C448.768 148.792 381.939 132.188 384.21 106.902C387.848 66.6054 269.58 16.0761 171.11 38.5994C76.0814 61.6035 59.9081 21.4753 1.21068e-05 0Z"/><path id="shape01" transform="matrix(-1.00000005870508 0 0 -0.999999961612328 408.820853339377 252)" opacity="0.6" fill="#62d3c5" fill-rule="evenodd" stroke="#62d3c5" stroke-width="0.72" stroke-linecap="square" stroke-linejoin="bevel" d="M0 0C51.2317 15.0448 70.9999 32.8529 87.2295 47.3456C127.302 75.8478 137.581 67.4566 183.356 66.6342C274.644 67.2039 281.717 70.3009 301.821 85.9233C317.834 98.619 303.463 127.368 300.467 138.028C291.921 170.067 327.799 198.457 408.101 223.2L408.101 2.68013e-06Z"/><path id="shape02" transform="matrix(-1.00000003662032 0 0 -0.99999991009429 426.639944082688 252)" opacity="0.7" fill="#3b8a80" fill-rule="evenodd" stroke="#3b8a80" stroke-width="0.72" stroke-linecap="square" stroke-linejoin="bevel" d="M0 0L427.052 2.68013e-06L427.052 201.6C391.607 176.313 337.398 157.15 366.055 126C384.47 109.038 377.688 83.0421 318.707 80.4276C196.067 79.7841 197.035 54.759 178.273 36.3491C140.185 -0.0605195 6.32031 34.6447 0 0Z"/>
</svg>
