<?xml version="1.0" standalone="no"?>
<!DOCTYPE svg PUBLIC "-//W3C//DTD SVG 20010904//EN" "http://www.w3.org/TR/2001/REC-SVG-20010904/DTD/svg10.dtd">
<!-- Created using Krita: http://krita.org -->
<svg xmlns="http://www.w3.org/2000/svg" 
    xmlns:xlink="http://www.w3.org/1999/xlink"
    xmlns:krita="http://krita.org/namespaces/svg/krita"
    xmlns:sodipodi="http://sodipodi.sourceforge.net/DTD/sodipodi-0.dtd"
    width="558pt"
    height="263.52pt"
    viewBox="0 0 558 263.52">
<defs/>
<circle id="shape0" transform="matrix(1 0 0 1.00000004169068 165.6 47.5200019811412)" r="54.72" cx="54.72" cy="54.72" fill="#eff2ea" fill-rule="evenodd" stroke="#eff2ea" stroke-width="12.0312" stroke-linecap="square" stroke-linejoin="bevel"/><circle id="shape1" transform="matrix(1 0 0 1.00000004169068 164.16 46.0800019211066)" r="55.8" cx="55.8" cy="55.8" fill="none" stroke="#a7f192" stroke-width="12.0312" stroke-linecap="square" stroke-linejoin="bevel"/><path id="shape2" transform="matrix(1 0 0 1.00000004169068 89.2799993351999 122.760004203848)" fill="none" stroke="#a7f192" stroke-width="12.0312" stroke-linecap="square" stroke-linejoin="miter" stroke-miterlimit="2" d="M76.68 0L0 26.28"/><path id="shape3" transform="matrix(1 0 0 1.00000004169068 0 13.6800015803279)" fill="#62d3c5" fill-rule="evenodd" stroke="#62d3c5" stroke-width="2.4552" stroke-linecap="square" stroke-linejoin="bevel" d="M0 0C5.91807 8.39353 8.58949 13.8795 21.1284 23.1037C32.2009 30.1104 44.6021 30.9342 60.2031 27.3039C72.4301 21.2975 71.7334 17.4876 67.9671 9.23026C91.1211 21.5469 100.59 35.0739 93.6 57.24C85.949 75.1315 75.7657 79.4304 71.0218 97.8166C73.4014 123.486 100.497 133.394 113.533 137.528C121.889 139.022 130.244 139.011 138.6 138.6C154.287 137.13 165.656 131.735 173.88 123.48C180.507 116.458 182.992 109.219 176.76 101.52C168.025 92.4163 156.845 87.5904 145.44 83.16C177.556 88.3581 205.32 94.5075 234.749 105.753C253.688 114.817 267.614 126.48 279 137.782C283.441 144.415 287.21 151.047 279 157.68C304.25 169.799 336.27 163.993 344.418 162.984C358.405 160.033 379.858 154.752 386.929 143.637C390.439 135.168 381.606 129.72 372.6 124.56C392.958 126.897 409.389 133.518 422.28 144C428.416 150.212 432.609 157.826 432.24 171.129C427.765 182.528 422.15 184.298 412.385 192.512C416.657 198.443 448.327 199.658 467.01 196.56C482.39 191.631 482.821 190.379 484.679 178.257C506.39 185.62 515.845 192.504 524.136 210.586C526.931 219.346 525.999 221.893 525.918 225.859C520.683 242.83 547.391 246.733 558 249.84L0 249.84Z"/><path id="shape4" transform="matrix(1 0 0 1.00000004169068 0 62.6400061019941)" fill="#3b8a80" fill-rule="evenodd" stroke="#3b8a80" stroke-width="2.4552" stroke-linecap="square" stroke-linejoin="bevel" d="M0 0C3.11507 11.042 6.06369 22.1505 25.56 26.64C41.5066 28.474 47.9785 27.8751 55.4937 21.7461C52.7869 29.1414 54.7392 29.8971 45.72 39.96C32.196 51.9658 28.479 62.0857 30.6 72.72C38.1161 90.9482 44.875 98.6259 55.44 108.72C67.6023 117.495 80.8432 127.068 111.06 130.68C133.896 132.783 154.636 130.489 174.6 129.24C185.605 127.088 188.648 128.336 200.337 121.151C211.317 111.797 210.223 101.37 200.083 90.0951C216.407 89.8457 244.704 98.7797 252 111.96C255.699 118.663 258.058 126.04 254.52 136.08C253.349 140.475 249.193 142.296 246.667 146.352C270.975 155.015 285.852 154.294 316.08 152.28C334.736 149.845 353.462 147.934 370.8 142.56C385.631 138.551 384.227 132.563 385.973 126.903C388.891 129.509 392.076 131.96 395.73 136.89C399.874 142.349 401.476 149.353 398.52 154.71C394.267 160.338 393.27 163.852 388.53 167.67C407.01 174.563 414.6 172.548 433.08 172.8C450.303 172.042 467.367 171.178 480.6 167.76C488.382 165.564 488.442 161.965 489.96 157.32C503.06 175.343 494.476 178.57 492.698 186.573C492.459 195.045 499.742 200.702 512.498 202.773L505.935 200.88L0 200.88L0 20.52Z"/>
</svg>
