<?xml version="1.0" standalone="no"?>
<!DOCTYPE svg PUBLIC "-//W3C//DTD SVG 20010904//EN" "http://www.w3.org/TR/2001/REC-SVG-20010904/DTD/svg10.dtd">
<!-- Created using Krita: http://krita.org -->
<svg xmlns="http://www.w3.org/2000/svg" 
    xmlns:xlink="http://www.w3.org/1999/xlink"
    xmlns:krita="http://krita.org/namespaces/svg/krita"
    xmlns:sodipodi="http://sodipodi.sourceforge.net/DTD/sodipodi-0.dtd"
    width="359.28pt"
    height="259.92pt"
    viewBox="0 0 359.28 259.92">
<defs/>
<rect id="shape2" transform="matrix(-0.000665728650279483 0.999999850472202 -0.999999803502013 -0.000665728681548901 344.957138795813 14.1500223406014)" fill="#5db5d8" fill-rule="evenodd" stroke="#5db5d8" stroke-width="28.8" stroke-linecap="square" stroke-linejoin="bevel" width="231.84" height="330.48" rx="2.16" ry="2.16"/><rect id="shape5" transform="matrix(-0.00072015243396102 0.999999756907788 -0.999999770751542 -0.000720152423991407 338.118517914541 20.9940986604587)" fill="#86dafb" fill-rule="evenodd" stroke="#86dafb" stroke-width="4.2336" stroke-linecap="square" stroke-linejoin="bevel" width="218.16" height="316.8" rx="2.16" ry="2.16"/><path id="shape8" transform="matrix(0.999999973404964 0 0 1.0000000309378 19.3429530686024 18.1754472962551)" fill="#5db5d8" fill-rule="evenodd" stroke="#5db5d8" stroke-width="4.2336" stroke-linecap="square" stroke-linejoin="bevel" d="M0 0L0 40.32C24.4017 40.1257 39.8194 25.0555 39.6 0.72Z"/><path id="shape02" transform="matrix(-0.999999895425702 -0.000490533294748667 0.000490533356237096 -0.999999921782196 339.840903160725 241.509439047784)" fill="#5db5d8" fill-rule="evenodd" stroke="#5db5d8" stroke-width="4.2336" stroke-linecap="square" stroke-linejoin="bevel" d="M0 0L0 40.32C24.4017 40.1257 39.8194 25.0555 39.6 0.72Z"/><path id="shape05" transform="matrix(1.00000000670753 0 0 0.999999988560423 318.02872943291 217.029886297067)" fill="none" stroke="#f9fef8" stroke-width="2.1168" stroke-linecap="square" stroke-linejoin="bevel" d="M11.1133 0L7.76823 6.11126L0.143804 5.74279L4.79348 12.0135L0 18.3284L7.38475 17.3279L11.0455 23.7628L14.2394 17.2837L22.0021 18.3284L17.7359 11.7485L22.05 5.38952L14.6708 6.11126L11.1688 0.0461949Z"/><path id="shape051" transform="matrix(1.00000000670753 0 0 0.999999988560423 18.2123687644832 19.3898861114113)" fill="none" stroke="#f9fef8" stroke-width="2.1168" stroke-linecap="square" stroke-linejoin="bevel" d="M11.1133 0L7.76823 6.11126L0.143804 5.74279L4.79348 12.0135L0 18.3284L7.38475 17.3279L11.0455 23.7628L14.2394 17.2837L22.0021 18.3284L17.7359 11.7485L22.05 5.38952L14.6708 6.11126L11.1688 0.0461949Z"/>
</svg>
