<?xml version="1.0" standalone="no"?>
<!DOCTYPE svg PUBLIC "-//W3C//DTD SVG 20010904//EN" "http://www.w3.org/TR/2001/REC-SVG-20010904/DTD/svg10.dtd">
<!-- Created using Krita: http://krita.org -->
<svg xmlns="http://www.w3.org/2000/svg"
     xmlns:xlink="http://www.w3.org/1999/xlink"
     xmlns:krita="http://krita.org/namespaces/svg/krita"
     xmlns:sodipodi="http://sodipodi.sourceforge.net/DTD/sodipodi-0.dtd"
     width="359.28pt"
     height="144pt"
     viewBox="0 0 359.28 144">
    <defs/>
    <rect id="shape2" transform="matrix(-0.000665728639194344 0.999999810727054 -0.999999786850879 -0.000665728655089412 344.957491105855 13.6121841636132)" fill="#5db5d8" fill-rule="evenodd" stroke="#5db5d8" stroke-width="28.8" stroke-linecap="square" stroke-linejoin="bevel" width="116.64" height="330.48" rx="1.08670807453416" ry="2.16"/><rect id="shape5" transform="matrix(-0.000720152452386133 0.999999721378567 -0.999999796336555 -0.000720152398404947 338.119029644529 20.2693043965798)" fill="#86dafb" fill-rule="evenodd" stroke="#86dafb" stroke-width="4.2336" stroke-linecap="square" stroke-linejoin="bevel" width="104.400006222725" height="316.799962234502" rx="1.03366342794778" ry="2.15999974250797"/><path id="shape8" transform="matrix(0.999999950492094 0 0 0.99999995634731 19.7041067950172 17.815444526702)" fill="#5db5d8" fill-rule="evenodd" stroke="#5db5d8" stroke-width="4.2336" stroke-linecap="square" stroke-linejoin="bevel" d="M0 0L0 28.8C17.7457 28.6612 28.9579 17.8968 28.7983 0.514286Z"/><path id="shape02" transform="matrix(-0.999999887430035 -0.000490533257406972 0.000490533352314945 -0.999999845657518 339.727895954755 126.781529135328)" fill="#5db5d8" fill-rule="evenodd" stroke="#5db5d8" stroke-width="4.2336" stroke-linecap="square" stroke-linejoin="bevel" d="M0 0L0 28.8C17.7457 28.6612 28.9579 17.8968 28.7983 0.514286Z"/><path id="shape051" transform="matrix(1.00000004038305 0 0 0.999999855436926 323.135947067025 109.886111573372)" fill="none" stroke="#f9fef8" stroke-width="2.1168" stroke-linecap="square" stroke-linejoin="bevel" d="M8.34633 0L5.8341 4.25886L0.108 4.00208L3.60001 8.37207L0 12.7728L5.54611 12.0756L8.29543 16.56L10.6941 12.0449L16.524 12.7728L13.32 8.18738L16.56 3.75589L11.018 4.25886L8.38803 0.0321926Z"/><path id="shape0511" transform="matrix(1.00000007902773 0 0 0.999999839211662 18.7890217249725 18.4459443843102)" fill="none" stroke="#f9fef8" stroke-width="2.1168" stroke-linecap="square" stroke-linejoin="bevel" d="M8.34633 0L5.8341 4.25886L0.108 4.00208L3.60001 8.37208L0 12.7728L5.5461 12.0756L8.29543 16.56L10.6941 12.0449L16.524 12.7728L13.3199 8.18739L16.56 3.75589L11.018 4.25886L8.38803 0.0321926Z"/>
</svg>