<?xml version="1.0" standalone="no"?>
<!DOCTYPE svg PUBLIC "-//W3C//DTD SVG 20010904//EN" "http://www.w3.org/TR/2001/REC-SVG-20010904/DTD/svg10.dtd">
<!-- Created using Krita: http://krita.org -->
<svg xmlns="http://www.w3.org/2000/svg" 
    xmlns:xlink="http://www.w3.org/1999/xlink"
    xmlns:krita="http://krita.org/namespaces/svg/krita"
    xmlns:sodipodi="http://sodipodi.sourceforge.net/DTD/sodipodi-0.dtd"
    width="393.12pt"
    height="281.52pt"
    viewBox="0 0 393.12 281.52">
<defs/>
<rect id="shape0" transform="translate(85.68, -407.52)" fill="#128e58" fill-rule="evenodd" stroke="#128e58" stroke-width="28.8" stroke-linecap="square" stroke-linejoin="bevel" width="231.84" height="330.48" rx="2.16" ry="2.16"/><rect id="shape1" transform="translate(397.44, -407.52)" fill="#3b8a80" fill-rule="evenodd" stroke="#3b8a80" stroke-width="28.8" stroke-linecap="square" stroke-linejoin="bevel" width="231.84" height="330.48" rx="2.16" ry="2.16"/><rect id="shape2" transform="matrix(-0.000665728633570142 0.999999778402674 -0.999999778402674 -0.000665728633570142 364.757134646461 28.5500306869749)" fill="#5db5d8" fill-rule="evenodd" stroke="#5db5d8" stroke-width="28.8" stroke-linecap="square" stroke-linejoin="bevel" width="231.84" height="330.48" rx="2.16" ry="2.16"/><rect id="shape3" transform="translate(92.3708831033188, -399.574415514771)" fill="#4dce96" fill-rule="evenodd" stroke="#4dce96" stroke-width="4.2336" stroke-linecap="square" stroke-linejoin="bevel" width="218.16" height="316.8" rx="2.16" ry="2.16"/><rect id="shape4" transform="translate(404.763532454466, -401.04)" fill="#62d3c5" fill-rule="evenodd" stroke="#62d3c5" stroke-width="4.2336" stroke-linecap="square" stroke-linejoin="bevel" width="218.16" height="316.8" rx="2.16" ry="2.16"/><rect id="shape5" transform="matrix(-0.000720152412312283 0.999999740690222 -0.999999740690222 -0.000720152412312283 356.838513150465 35.7541004276235)" fill="#86dafb" fill-rule="evenodd" stroke="#86dafb" stroke-width="4.2336" stroke-linecap="square" stroke-linejoin="bevel" width="218.16" height="316.8" rx="2.16" ry="2.16"/><path id="shape6" transform="matrix(0.999962232587724 -0.00869099523496372 0.00869099523496372 0.999962232587724 38.0423162456854 32.3932176391879)" fill="#5db5d8" fill-rule="evenodd" stroke="#5db5d8" stroke-width="4.2336" stroke-linecap="square" stroke-linejoin="bevel" d="M0 0L0 43.2C25.6701 43.0477 41.4959 27.4147 41.76 1.44L0 0Z"/><path id="shape7" transform="translate(90.5399937621332, -402.300004861583)" fill="#128e58" fill-rule="evenodd" stroke="#128e58" stroke-width="4.2336" stroke-linecap="square" stroke-linejoin="bevel" d="M0 0L0 40.32C24.4017 40.1257 39.8194 25.0555 39.6 0.72L0 0Z"/><path id="shape8" transform="translate(402.811323340183, -403.728750868023)" fill="#3b8a80" fill-rule="evenodd" stroke="#3b8a80" stroke-width="4.2336" stroke-linecap="square" stroke-linejoin="bevel" d="M2.31782e-05 0L0 41.4C26.2317 41.3254 40.3148 26.2215 40.32 1.07999L2.31782e-05 0Z"/><path id="shape0" transform="matrix(-0.999998666846313 -0.00162039821295005 0.00162039826171813 -0.999998696942761 312.506026377658 -80.1172625029097)" fill="#128e58" fill-rule="evenodd" stroke="#128e58" stroke-width="4.2336" stroke-linecap="square" stroke-linejoin="bevel" d="M0 0L0 40.32C25.2566 39.5872 39.9392 24.8344 39.6 0.72Z"/><path id="shape01" transform="matrix(-0.999999580351642 0.000944127857292721 -0.000944127820780977 -0.999999541678727 624.988900027523 -81.4041165224645)" fill="#3b8a80" fill-rule="evenodd" stroke="#3b8a80" stroke-width="4.2336" stroke-linecap="square" stroke-linejoin="bevel" d="M2.31782e-05 0L0 41.4C25.7261 41.1281 40.1014 26.195 40.32 1.07999Z"/><path id="shape02" transform="matrix(-0.999998358233136 0.00181189025240176 -0.00181188974234041 -0.999998390989016 359.009946308172 257.123030582434)" fill="#5db5d8" fill-rule="evenodd" stroke="#5db5d8" stroke-width="4.2336" stroke-linecap="square" stroke-linejoin="bevel" d="M0 0L0 43.2C25.6701 43.0477 41.4959 27.4147 41.76 1.44Z"/><path id="shape9" transform="translate(89.2709641953188, -399.589849281079)" fill="none" stroke="#f9fef8" stroke-width="2.1168" stroke-linecap="square" stroke-linejoin="bevel" d="M0 0L9.36 16.9282C12.6 11.3805 15.84 5.83293 19.08 0.285306C12.765 0.190204 6.5378 0.095102 0 0Z"/><path id="shape03" transform="matrix(-0.999993354633015 0.00364735776001842 -0.00364735778129307 -0.999993360466119 313.453984976098 -84.0778188433326)" fill="none" stroke="#f9fef8" stroke-width="2.1168" stroke-linecap="square" stroke-linejoin="bevel" d="M0 0L9.3133 16.4459L18.9848 0.277177Z"/><circle id="shape10" transform="translate(403.522268546797, -402.714272835052)" r="9.72" cx="9.72" cy="9.72" fill="none" stroke="#f9fef8" stroke-width="2.1168" stroke-linecap="square" stroke-linejoin="bevel"/><circle id="shape04" transform="matrix(0.999999995995044 0 0 1.00000001620135 605.035907577805 -102.002697617349)" r="9.72" cx="9.72" cy="9.72" fill="none" stroke="#f9fef8" stroke-width="2.1168" stroke-linecap="square" stroke-linejoin="bevel"/><path id="shape11" transform="translate(36.9900000687388, 33.2986025062139)" fill="none" stroke="#f9fef8" stroke-width="2.1168" stroke-linecap="square" stroke-linejoin="bevel" d="M11.1133 0L7.76823 6.11126L0.143804 5.74279L4.79348 12.0135L0 18.3284L7.38475 17.3279L11.0455 23.7628L14.2394 17.2837L22.0021 18.3284L17.7359 11.7485L22.05 5.38952L14.6708 6.11126L11.1688 0.0461949Z"/><path id="shape05" transform="matrix(1.00000002418631 0 0 1.00000000385411 336.314371542345 232.354249799694)" fill="none" stroke="#f9fef8" stroke-width="2.1168" stroke-linecap="square" stroke-linejoin="bevel" d="M11.1133 0L7.76823 6.11126L0.143804 5.74279L4.79348 12.0135L0 18.3284L7.38475 17.3279L11.0455 23.7628L14.2394 17.2837L22.0021 18.3284L17.7359 11.7485L22.05 5.38952L14.6708 6.11126L11.1688 0.0461949Z"/>
</svg>
