<?xml version="1.0" standalone="no"?>
<!DOCTYPE svg PUBLIC "-//W3C//DTD SVG 20010904//EN" "http://www.w3.org/TR/2001/REC-SVG-20010904/DTD/svg10.dtd">
<!-- Created using Krita: http://krita.org -->
<svg xmlns="http://www.w3.org/2000/svg"
     xmlns:xlink="http://www.w3.org/1999/xlink"
     xmlns:krita="http://krita.org/namespaces/svg/krita"
     xmlns:sodipodi="http://sodipodi.sourceforge.net/DTD/sodipodi-0.dtd"
     width="359.28pt"
     height="144pt"
     viewBox="0 0 359.28 144">
    <defs/>
    <rect id="shape3" transform="matrix(0.00084956178241388 0.999999602561783 -0.999999660837275 0.00084956173290528 344.830549483779 13.7178037634942)" fill="#0e4469" fill-rule="evenodd" stroke="#0e4469" stroke-width="28.8" stroke-linecap="square" stroke-linejoin="bevel" width="116.283675527098" height="330.48" rx="1.08338828130836" ry="2.16"/><rect id="shape7" transform="matrix(-0.000752051888153723 0.999999639588584 -0.999999719539621 -0.000752051828026382 337.719213295106 19.9191407116738)" fill="#0d6aaa" fill-rule="evenodd" stroke="#0d6aaa" stroke-width="4.2336" stroke-linecap="square" stroke-linejoin="bevel" width="104.400006222725" height="316.8" rx="1.03366342794778" ry="2.16"/><path id="shape8" transform="matrix(0.999999927579225 0 0 0.999999933417851 19.0883937325624 17.1572117287068)" fill="#0e4469" fill-rule="evenodd" stroke="#0e4469" stroke-width="4.2336" stroke-linecap="square" stroke-linejoin="bevel" d="M0 0L0 29.0542C17.5836 28.9142 28.6935 18.0548 28.5354 0.518825Z"/><path id="shape02" transform="matrix(-0.999999890827665 -0.000490533257406968 0.000490533353981596 -0.999999845657512 340.021609403516 126.59943267894)" fill="#0e4469" fill-rule="evenodd" stroke="#0e4469" stroke-width="4.2336" stroke-linecap="square" stroke-linejoin="bevel" d="M0 0L0 28.8C17.7457 28.6612 28.9579 17.8968 28.7983 0.514286Z"/><path id="shape15" transform="matrix(0.999999997969037 0 0 0.999999946756658 19.0190745117822 17.8493049846415)" fill="none" stroke="#f9fef8" stroke-width="2.1168" stroke-linecap="square" stroke-linejoin="bevel" d="M3.82312 0C5.05328 6.68475 9.00141 10.325 14.4 12.3406C10.5251 14.8206 5.44102 15.3953 1.7007 12.1882C-1.68942 7.48434 0.498022 3.15222 3.81626 0.000846392"/><path id="shape07" transform="matrix(-0.999984241683797 0.00560353468878436 -0.00560353522427134 -0.999984209873419 338.509330972628 125.46139912876)" fill="none" stroke="#f9fef8" stroke-width="2.1168" stroke-linecap="square" stroke-linejoin="bevel" d="M3.82312 0C5.05328 6.68475 9.00141 10.325 14.4 12.3406C10.5251 14.8206 5.44102 15.3953 1.7007 12.1882C-1.68942 7.48434 0.498023 3.15222 3.81626 0.000846392"/>
</svg>
