<?xml version="1.0" standalone="no"?>
<!DOCTYPE svg PUBLIC "-//W3C//DTD SVG 20010904//EN" "http://www.w3.org/TR/2001/REC-SVG-20010904/DTD/svg10.dtd">
<!-- Created using Krita: http://krita.org -->
<svg xmlns="http://www.w3.org/2000/svg" 
    xmlns:xlink="http://www.w3.org/1999/xlink"
    xmlns:krita="http://krita.org/namespaces/svg/krita"
    xmlns:sodipodi="http://sodipodi.sourceforge.net/DTD/sodipodi-0.dtd"
    width="359.28pt"
    height="259.92pt"
    viewBox="0 0 359.28 259.92">
<defs/>
<rect id="shape3" transform="matrix(0.000849561784588998 0.999999637725756 -0.999999663397557 0.000849561762779257 344.781463177743 13.8996604091487)" fill="#0e4469" fill-rule="evenodd" stroke="#0e4469" stroke-width="28.8" stroke-linecap="square" stroke-linejoin="bevel" width="231.84" height="330.48" rx="2.16" ry="2.16"/><rect id="shape7" transform="matrix(-0.00075205191318562 0.999999695282457 -0.999999752824414 -0.000752051869911077 338.121994670077 20.9991582547835)" fill="#0d6aaa" fill-rule="evenodd" stroke="#0d6aaa" stroke-width="4.2336" stroke-linecap="square" stroke-linejoin="bevel" width="218.16" height="316.8" rx="2.16" ry="2.16"/><path id="shape8" transform="matrix(0.999999947094457 0 0 1.00000000800834 19.3429525596795 18.1754468795018)" fill="#0e4469" fill-rule="evenodd" stroke="#0e4469" stroke-width="4.2336" stroke-linecap="square" stroke-linejoin="bevel" d="M0 0L0 40.32C24.4017 40.1257 39.8194 25.0555 39.6 0.72Z"/><path id="shape02" transform="matrix(-0.999999895425702 -0.000490533294748667 0.000490533356237096 -0.999999921782196 339.840903160725 241.509439047784)" fill="#0e4469" fill-rule="evenodd" stroke="#0e4469" stroke-width="4.2336" stroke-linecap="square" stroke-linejoin="bevel" d="M0 0L0 40.32C24.4017 40.1257 39.8194 25.0555 39.6 0.72Z"/><path id="shape15" transform="matrix(1.0000000331089 0 0 0.999999970074365 18.5017767008368 18.4475671992206)" fill="none" stroke="#f9fef8" stroke-width="2.1168" stroke-linecap="square" stroke-linejoin="bevel" d="M4.81464 0C6.36383 8.97032 11.3359 13.8552 18.1346 16.56C13.2547 19.8879 6.85213 20.6591 2.14177 16.3554C-2.12756 10.0433 0.627181 4.22999 4.806 0.00113578"/><path id="shape07" transform="matrix(-0.99998426426782 0.00560353487386375 -0.00560353535082362 -0.999984242901925 339.314073862179 240.886905041862)" fill="none" stroke="#f9fef8" stroke-width="2.1168" stroke-linecap="square" stroke-linejoin="bevel" d="M4.81464 0C6.36383 8.97032 11.3359 13.8552 18.1346 16.56C13.2547 19.8879 6.85213 20.6591 2.14177 16.3554C-2.12756 10.0433 0.627181 4.22999 4.806 0.00113578"/>
</svg>
