<?xml version="1.0" standalone="no"?>
<!DOCTYPE svg PUBLIC "-//W3C//DTD SVG 20010904//EN" "http://www.w3.org/TR/2001/REC-SVG-20010904/DTD/svg10.dtd">
<!-- Created using Krita: http://krita.org -->
<svg xmlns="http://www.w3.org/2000/svg" 
    xmlns:xlink="http://www.w3.org/1999/xlink"
    xmlns:krita="http://krita.org/namespaces/svg/krita"
    xmlns:sodipodi="http://sodipodi.sourceforge.net/DTD/sodipodi-0.dtd"
    width="379.44pt"
    height="272.88pt"
    viewBox="0 0 379.44 272.88">
<defs/>
<rect id="shape0" transform="translate(-245.52, -414.72)" fill="#128e58" fill-rule="evenodd" stroke="#128e58" stroke-width="28.8" stroke-linecap="square" stroke-linejoin="bevel" width="231.84" height="330.48" rx="2.16" ry="2.16"/><rect id="shape1" transform="translate(66.24, -414.72)" fill="#3b8a80" fill-rule="evenodd" stroke="#3b8a80" stroke-width="28.8" stroke-linecap="square" stroke-linejoin="bevel" width="231.84" height="330.48" rx="2.16" ry="2.16"/><rect id="shape2" transform="translate(-247.68, -28.08)" fill="#5db5d8" fill-rule="evenodd" stroke="#5db5d8" stroke-width="28.8" stroke-linecap="square" stroke-linejoin="bevel" width="231.84" height="330.48" rx="2.16" ry="2.16"/><rect id="shape3" transform="matrix(0.000849561763965711 0.99999963912234 -0.99999963912234 0.000849561763965711 345.141459168896 20.3796602470592)" fill="#0e4469" fill-rule="evenodd" stroke="#0e4469" stroke-width="28.8" stroke-linecap="square" stroke-linejoin="bevel" width="231.84" height="330.48" rx="2.16" ry="2.16"/><rect id="shape4" transform="translate(-238.829116896681, -406.774415514771)" fill="#4dce96" fill-rule="evenodd" stroke="#4dce96" stroke-width="4.2336" stroke-linecap="square" stroke-linejoin="bevel" width="218.16" height="316.8" rx="2.16" ry="2.16"/><rect id="shape5" transform="translate(73.5635324544663, -408.24)" fill="#62d3c5" fill-rule="evenodd" stroke="#62d3c5" stroke-width="4.2336" stroke-linecap="square" stroke-linejoin="bevel" width="218.16" height="316.8" rx="2.16" ry="2.16"/><rect id="shape6" transform="translate(-241.92, -20.88)" fill="#86dafb" fill-rule="evenodd" stroke="#86dafb" stroke-width="4.2336" stroke-linecap="square" stroke-linejoin="bevel" width="218.16" height="316.8" rx="2.16" ry="2.16"/><rect id="shape7" transform="matrix(-0.000752051886400933 0.999999717208942 -0.999999717208942 -0.000752051886400933 339.561989025665 27.4791558656545)" fill="#0d6aaa" fill-rule="evenodd" stroke="#0d6aaa" stroke-width="4.2336" stroke-linecap="square" stroke-linejoin="bevel" width="218.16" height="316.8" rx="2.16" ry="2.16"/><path id="shape8" transform="translate(19.9925260167553, 24.1148138005037)" fill="#0e4469" fill-rule="evenodd" stroke="#0e4469" stroke-width="4.2336" stroke-linecap="square" stroke-linejoin="bevel" d="M1.16662e-05 0.50913L0 44.8023C27.4525 44.961 43.5692 27.9134 43.7841 0L1.16662e-05 0.50913Z"/><path id="shape9" transform="translate(-243.81420742124, -24.8106902091738)" fill="#5db5d8" fill-rule="evenodd" stroke="#5db5d8" stroke-width="4.2336" stroke-linecap="square" stroke-linejoin="bevel" d="M0 0L0 43.2C25.6701 43.0477 41.4959 27.4147 41.76 1.44L0 0Z"/><path id="shape10" transform="translate(-240.660006237867, -409.500004861583)" fill="#128e58" fill-rule="evenodd" stroke="#128e58" stroke-width="4.2336" stroke-linecap="square" stroke-linejoin="bevel" d="M0 0L0 40.32C24.4017 40.1257 39.8194 25.0555 39.6 0.72L0 0Z"/><path id="shape11" transform="translate(71.6113233401834, -410.928750868023)" fill="#3b8a80" fill-rule="evenodd" stroke="#3b8a80" stroke-width="4.2336" stroke-linecap="square" stroke-linejoin="bevel" d="M2.31782e-05 0L0 41.4C26.2317 41.3254 40.3148 26.2215 40.32 1.07999L2.31782e-05 0Z"/><path id="shape0" transform="matrix(-0.999998156502624 -0.00190627454907151 0.00190627468720488 -0.999998228965009 -21.8494336091489 298.874647667225)" fill="#5db5d8" fill-rule="evenodd" stroke="#5db5d8" stroke-width="4.2336" stroke-linecap="square" stroke-linejoin="bevel" d="M0 0L0 43.2C27.8061 42.604 42.4288 27.652 41.76 1.44Z"/><path id="shape01" transform="matrix(-0.999998666846313 -0.00162039821295005 0.00162039826171813 -0.999998696942761 -18.6939736223424 -87.3172625029097)" fill="#128e58" fill-rule="evenodd" stroke="#128e58" stroke-width="4.2336" stroke-linecap="square" stroke-linejoin="bevel" d="M0 0L0 40.32C25.2566 39.5872 39.9392 24.8344 39.6 0.72Z"/><path id="shape02" transform="matrix(-0.999999580351642 0.000944127857292721 -0.000944127820780977 -0.999999541678727 293.788900027523 -88.6041165224644)" fill="#3b8a80" fill-rule="evenodd" stroke="#3b8a80" stroke-width="4.2336" stroke-linecap="square" stroke-linejoin="bevel" d="M2.31782e-05 0L0 41.4C25.7261 41.1281 40.1014 26.195 40.32 1.07999Z"/><path id="shape03" transform="matrix(-0.999999878541217 -0.000404893381471557 0.000404893412169424 -0.999999954357224 341.354697358905 247.886141992907)" fill="#0e4469" fill-rule="evenodd" stroke="#0e4469" stroke-width="4.2336" stroke-linecap="square" stroke-linejoin="bevel" d="M1.16662e-05 0.50913L0 44.8023C27.4525 44.961 43.5692 27.9134 43.7841 0Z"/><path id="shape12" transform="translate(-241.929035804681, -406.789849281079)" fill="none" stroke="#f9fef8" stroke-width="2.1168" stroke-linecap="square" stroke-linejoin="bevel" d="M0 0L9.36 16.9282C12.6 11.3805 15.84 5.83293 19.08 0.285306C12.765 0.190204 6.5378 0.095102 0 0Z"/><path id="shape04" transform="matrix(-0.999993354633015 0.00364735776001842 -0.00364735778129307 -0.999993360466119 -17.7460150239017 -91.2778188433326)" fill="none" stroke="#f9fef8" stroke-width="2.1168" stroke-linecap="square" stroke-linejoin="bevel" d="M0 0L9.3133 16.4459L18.9848 0.277177Z"/><circle id="shape13" transform="translate(72.3222685467967, -409.914272835052)" r="9.72" cx="9.72" cy="9.72" fill="none" stroke="#f9fef8" stroke-width="2.1168" stroke-linecap="square" stroke-linejoin="bevel"/><circle id="shape05" transform="matrix(0.999999995995044 0 0 1.00000001620135 273.835907577805 -109.202697617349)" r="9.72" cx="9.72" cy="9.72" fill="none" stroke="#f9fef8" stroke-width="2.1168" stroke-linecap="square" stroke-linejoin="bevel"/><path id="shape14" transform="translate(-244.530000010752, -22.7699706285126)" fill="none" stroke="#f9fef8" stroke-width="2.1168" stroke-linecap="square" stroke-linejoin="bevel" d="M11.1133 0L7.76823 6.11126L0.143804 5.74279L4.79348 12.0135L0 18.3284L7.38475 17.3279L11.0455 23.7628L14.2394 17.2837L22.0021 18.3284L17.7359 11.7485L22.05 5.38952L14.6708 6.11126L11.1688 0.0461949Z"/><path id="shape15" transform="translate(19.2959379455868, 24.9315518530691)" fill="none" stroke="#f9fef8" stroke-width="2.1168" stroke-linecap="square" stroke-linejoin="bevel" d="M4.81464 0C6.36383 8.97032 11.3359 13.8552 18.1346 16.56C13.2547 19.8879 6.85213 20.6591 2.14177 16.3554C-2.12756 10.0433 0.627184 4.22999 4.806 0.00113578"/><path id="shape06" transform="matrix(0.999999982159182 0 0 0.999999972817389 -43.665631684352 274.385673039053)" fill="none" stroke="#f9fef8" stroke-width="2.1168" stroke-linecap="square" stroke-linejoin="bevel" d="M11.1133 0L7.76823 6.11126L0.143804 5.74279L4.79348 12.0135L0 18.3284L7.38475 17.3279L11.0455 23.7628L14.2394 17.2837L22.0021 18.3284L17.7359 11.7485L22.05 5.38952L14.6708 6.11126L11.1688 0.0461949Z"/><path id="shape07" transform="matrix(-0.99994586403981 0.0104007970270713 -0.0104007971031699 -0.999945871356101 340.688210261508 246.724379696452)" fill="none" stroke="#f9fef8" stroke-width="2.1168" stroke-linecap="square" stroke-linejoin="bevel" d="M4.81464 0C6.36383 8.97032 11.3359 13.8552 18.1346 16.56C13.2547 19.8879 6.85213 20.6591 2.14177 16.3554C-2.12756 10.0433 0.627183 4.22999 4.806 0.00113578"/>
</svg>
