<svg xmlns="http://www.w3.org/2000/svg" xmlns:xlink="http://www.w3.org/1999/xlink" version="1.1" width="1000" height="1000" viewBox="0 0 1000 1000" xml:space="preserve">
<desc>Created with Fabric.js 3.5.0</desc>
    <defs>
</defs>
    <rect x="0" y="0" width="100%" height="100%" fill="#f7fef5"/>
    <g transform="matrix(1.3733 0 0 1.3733 500.0038 435.6821)" id="242100">
<g style="" vector-effect="non-scaling-stroke">
		<g transform="matrix(1.3333 0 0 1.3333 -0.0065 -0.0065)" id="shape0">
<rect style="stroke: rgb(59,138,128); stroke-width: 28.8; stroke-dasharray: none; stroke-linecap: square; stroke-dashoffset: 0; stroke-linejoin: bevel; stroke-miterlimit: 4; is-custom-font: none; font-file-url: none; fill: rgb(59,138,128); fill-rule: evenodd; opacity: 1;" x="-180" y="-180" rx="2.16" ry="2.16" width="360" height="360"/>
</g>
    <g transform="matrix(1.3333 0 0 1.3333 -0.0053 -0.0053)" id="shape01">
<rect style="stroke: rgb(98,211,197); stroke-width: 28.8; stroke-dasharray: none; stroke-linecap: square; stroke-dashoffset: 0; stroke-linejoin: bevel; stroke-miterlimit: 4; is-custom-font: none; font-file-url: none; fill: rgb(98,211,197); fill-rule: evenodd; opacity: 1;" x="-144.36" y="-144.36" rx="2.16" ry="2.16" width="288.72" height="288.72"/>
</g>
    <g transform="matrix(1.3333 0 0 1.3333 25.5586 -30.7236)" id="shape02">
<ellipse style="stroke: rgb(167,241,146); stroke-width: 28.8; stroke-dasharray: none; stroke-linecap: square; stroke-dashoffset: 0; stroke-linejoin: bevel; stroke-miterlimit: 4; is-custom-font: none; font-file-url: none; fill: rgb(247,254,245); fill-rule: nonzero; opacity: 1;" cx="0" cy="0" rx="95.4" ry="95.04"/>
</g>
    <g transform="matrix(1.3333 -0.0076 0.0076 1.3333 -120.3854 117.1186)" id="shape03">
<path style="stroke: rgb(167,241,146); stroke-width: 28.8; stroke-dasharray: none; stroke-linecap: square; stroke-dashoffset: 0; stroke-linejoin: miter; stroke-miterlimit: 2; is-custom-font: none; font-file-url: none; fill: none; fill-rule: nonzero; opacity: 1;" transform=" translate(-27.54, -28.08)" d="M 55.08 0 L 0 56.16" stroke-linecap="round"/>
</g>
</g>
</g>
    <g transform="matrix(1 0 0 1 500 884.9029)" style="" id="912089">
		
<path xml:space="preserve" font-family="Archivo" font-size="100" font-style="normal" font-weight="bold" style="stroke: none; stroke-width: 1; stroke-dasharray: none; stroke-linecap: butt; stroke-dashoffset: 0; stroke-linejoin: miter; stroke-miterlimit: 4; is-custom-font: none; font-file-url: none; fill: rgb(98,211,197); fill-rule: nonzero; opacity: 1; white-space: pre;" d="M-158.40 44.41L-177.80 44.41L-189 32.41Q-189.70 32.51-190.50 32.56Q-191.30 32.61-192 32.61L-192 32.61Q-202.70 32.61-210.45 28.66Q-218.20 24.71-222.35 16.81Q-226.50 8.91-226.50-2.89L-226.50-2.89Q-226.50-14.99-222.30-22.84Q-218.10-30.69-210.20-34.54Q-202.30-38.39-191.40-38.39L-191.40-38.39Q-180.30-38.39-172.45-34.54Q-164.60-30.69-160.40-22.84Q-156.20-14.99-156.20-2.89L-156.20-2.89Q-156.20 9.61-160.80 17.61Q-165.40 25.61-173.80 29.41L-173.80 29.41L-158.40 44.41ZM-191.40 20.41L-191.40 20.41Q-186.50 20.41-182.80 19.01Q-179.10 17.61-176.60 14.81Q-174.10 12.01-172.80 7.96Q-171.50 3.91-171.50-1.29L-171.50-1.29L-171.50-4.39Q-171.50-9.69-172.80-13.79Q-174.10-17.89-176.60-20.64Q-179.10-23.39-182.80-24.79Q-186.50-26.19-191.40-26.19L-191.40-26.19Q-196.20-26.19-199.90-24.79Q-203.60-23.39-206.10-20.64Q-208.60-17.89-209.85-13.79Q-211.10-9.69-211.10-4.39L-211.10-4.39L-211.10-1.29Q-211.10 3.91-209.85 7.96Q-208.60 12.01-206.10 14.81Q-203.60 17.61-199.90 19.01Q-196.20 20.41-191.40 20.41ZM-114.40 32.61L-114.40 32.61Q-123.80 32.61-130.55 29.61Q-137.30 26.61-140.90 20.56Q-144.50 14.51-144.50 5.51L-144.50 5.51L-144.50-37.19L-129.50-37.19L-129.50 5.11Q-129.50 12.51-125.60 16.46Q-121.70 20.41-114.40 20.41L-114.40 20.41Q-107.10 20.41-103.15 16.46Q-99.20 12.51-99.20 5.11L-99.20 5.11L-99.20-37.19L-84.20-37.19L-84.20 5.51Q-84.20 14.51-87.80 20.56Q-91.40 26.61-98.15 29.61Q-104.90 32.61-114.40 32.61ZM-54.40 31.41L-69.30 31.41L-69.30-37.19L-54.40-37.19L-54.40 31.41ZM14.90 31.41L-44.00 31.41L-44.00 25.01L-8.40-24.99L-41.50-24.99L-41.50-37.19L14.10-37.19L14.10-30.79L-21.50 19.11L14.90 19.11L14.90 31.41ZM34.50 31.41L19.10 31.41L45.50-37.19L63.90-37.19L90.30 31.41L74.20 31.41L69.30 17.91L39.40 17.91L34.50 31.41ZM49.80-10.99L43.70 5.91L65 5.91L58.90-10.99Q58.50-12.09 57.95-13.64Q57.40-15.19 56.80-17.09Q56.20-18.99 55.65-20.84Q55.10-22.69 54.60-24.19L54.60-24.19L54.00-24.19Q53.50-22.29 52.70-19.74Q51.90-17.19 51.10-14.84Q50.30-12.49 49.80-10.99L49.80-10.99ZM152.60 31.41L93.70 31.41L93.70 25.01L129.30-24.99L96.20-24.99L96.20-37.19L151.80-37.19L151.80-30.79L116.20 19.11L152.60 19.11L152.60 31.41ZM193.50 32.61L193.50 32.61Q184.10 32.61 177.35 29.61Q170.60 26.61 167 20.56Q163.40 14.51 163.40 5.51L163.40 5.51L163.40-37.19L178.40-37.19L178.40 5.11Q178.40 12.51 182.30 16.46Q186.20 20.41 193.50 20.41L193.50 20.41Q200.80 20.41 204.75 16.46Q208.70 12.51 208.70 5.11L208.70 5.11L208.70-37.19L223.70-37.19L223.70 5.51Q223.70 14.51 220.10 20.56Q216.50 26.61 209.75 29.61Q203 32.61 193.50 32.61Z"/></g>
</svg>