<?xml version="1.0" standalone="no"?>
<!DOCTYPE svg PUBLIC "-//W3C//DTD SVG 20010904//EN" "http://www.w3.org/TR/2001/REC-SVG-20010904/DTD/svg10.dtd">
<!-- Created using Krita: http://krita.org -->
<svg xmlns="http://www.w3.org/2000/svg"
     xmlns:xlink="http://www.w3.org/1999/xlink"
     xmlns:krita="http://krita.org/namespaces/svg/krita"
     xmlns:sodipodi="http://sodipodi.sourceforge.net/DTD/sodipodi-0.dtd"
     width="359.28pt"
     height="144pt"
     viewBox="0 0 359.28 144">
    <defs/>
    <rect id="shape0" transform="matrix(0.00258440975460118 0.999996692489682 -0.999996740352663 0.00258440963090321 345.089176136212 13.4224431922464)" fill="#128e58" fill-rule="evenodd" stroke="#128e58" stroke-width="28.8" stroke-linecap="square" stroke-linejoin="bevel" width="116.301402588775" height="330.48" rx="1.08355344026809" ry="2.16"/><rect id="shape3" transform="matrix(0.000912297571370093 0.999999537685626 -0.999999572764278 0.00091229753936791 338.352310389798 19.6555130912132)" fill="#4dce96" fill-rule="evenodd" stroke="#4dce96" stroke-width="4.2336" stroke-linecap="square" stroke-linejoin="bevel" width="104.400006222725" height="316.8" rx="1.03366342794778" ry="2.16"/><path id="shape8" transform="matrix(0.999999976802602 0 0 0.999999979276776 19.3004330998835 17.600816261053)" fill="#128e58" fill-rule="evenodd" stroke="#128e58" stroke-width="4.2336" stroke-linecap="square" stroke-linejoin="bevel" d="M0 0L0 28.8C17.7457 28.6612 28.9579 17.8968 28.7983 0.514286Z"/><path id="shape02" transform="matrix(-0.999999898823339 -0.000490533269407225 0.000490533357903771 -0.999999870121211 340.135509970154 126.700309599288)" fill="#128e58" fill-rule="evenodd" stroke="#128e58" stroke-width="4.2336" stroke-linecap="square" stroke-linejoin="bevel" d="M0 0L0 28.8C17.7457 28.6612 28.9579 17.8968 28.7983 0.514286Z"/><path id="shape9" transform="matrix(0.99999998058478 0 0 0.999999911761378 18.1107466422947 18.0331525047415)" fill="none" stroke="#f9fef8" stroke-width="2.1168" stroke-linecap="square" stroke-linejoin="bevel" d="M0 0L7.41736 13.68C9.98491 9.19684 12.5525 4.71371 15.12 0.230561C10.1157 0.153708 5.1809 0.0768535 0 0Z"/><path id="shape05" transform="matrix(-0.999998816682153 0.00153405728909986 -0.00153405731467784 -0.999998757009647 339.026086965342 125.61306366037)" fill="none" stroke="#f9fef8" stroke-width="2.1168" stroke-linecap="square" stroke-linejoin="bevel" d="M0 0L7.41736 13.68C9.98491 9.19683 12.5525 4.71371 15.12 0.230562C10.1157 0.153708 5.1809 0.0768539 0 0Z"/>
</svg>