<?xml version="1.0" standalone="no"?>
<!DOCTYPE svg PUBLIC "-//W3C//DTD SVG 20010904//EN" "http://www.w3.org/TR/2001/REC-SVG-20010904/DTD/svg10.dtd">
<!-- Created using Krita: http://krita.org -->
<svg xmlns="http://www.w3.org/2000/svg" 
    xmlns:xlink="http://www.w3.org/1999/xlink"
    xmlns:krita="http://krita.org/namespaces/svg/krita"
    xmlns:sodipodi="http://sodipodi.sourceforge.net/DTD/sodipodi-0.dtd"
    width="372.24pt"
    height="269.28pt"
    viewBox="0 0 372.24 269.28">
<defs/>
<rect id="shape0" transform="matrix(0.00258440954799092 0.999996660408071 -0.999996660408071 0.00258440954799092 349.259863411027 18.6533392917867)" fill="#128e58" fill-rule="evenodd" stroke="#128e58" stroke-width="28.8" stroke-linecap="square" stroke-linejoin="bevel" width="231.84" height="330.48" rx="2.16" ry="2.16"/><rect id="shape1" transform="translate(66.24, 356.4)" fill="#5db5d8" fill-rule="evenodd" stroke="#5db5d8" stroke-width="28.8" stroke-linecap="square" stroke-linejoin="bevel" width="231.84" height="330.48" rx="2.16" ry="2.16"/><rect id="shape2" transform="translate(378, 355.68)" fill="#0e4469" fill-rule="evenodd" stroke="#0e4469" stroke-width="28.8" stroke-linecap="square" stroke-linejoin="bevel" width="231.84" height="330.48" rx="2.16" ry="2.16"/><rect id="shape3" transform="matrix(0.000912297581489486 0.99999958385648 -0.99999958385648 0.000912297581489486 342.111303759983 26.1611219292294)" fill="#4dce96" fill-rule="evenodd" stroke="#4dce96" stroke-width="4.2336" stroke-linecap="square" stroke-linejoin="bevel" width="218.16" height="316.8" rx="2.16" ry="2.16"/><rect id="shape4" transform="translate(72, 363.6)" fill="#86dafb" fill-rule="evenodd" stroke="#86dafb" stroke-width="4.2336" stroke-linecap="square" stroke-linejoin="bevel" width="218.16" height="316.8" rx="2.16" ry="2.16"/><rect id="shape5" transform="translate(385.92, 361.44)" fill="#0d6aaa" fill-rule="evenodd" stroke="#0d6aaa" stroke-width="4.2336" stroke-linecap="square" stroke-linejoin="bevel" width="218.16" height="316.8" rx="2.16" ry="2.16"/><path id="shape6" transform="translate(383.952528028855, 358.91481180288)" fill="#0e4469" fill-rule="evenodd" stroke="#0e4469" stroke-width="4.2336" stroke-linecap="square" stroke-linejoin="bevel" d="M1.16662e-05 0.50913L0 44.8023C27.4525 44.961 43.5692 27.9134 43.7841 0L1.16662e-05 0.50913Z"/><path id="shape0" transform="matrix(-0.999999358110215 -0.00111589368770427 0.00111589372204284 -0.999999388882902 606.597574855884 680.268882358982)" fill="#0e4469" fill-rule="evenodd" stroke="#0e4469" stroke-width="4.2336" stroke-linecap="square" stroke-linejoin="bevel" d="M1.16662e-05 0.50913L0 44.8023C28.7459 44.7137 43.9265 29.8991 43.7841 0Z"/><path id="shape7" transform="translate(70.10579257876, 359.669309790826)" fill="#5db5d8" fill-rule="evenodd" stroke="#5db5d8" stroke-width="4.2336" stroke-linecap="square" stroke-linejoin="bevel" d="M0 0L0 43.2C25.6701 43.0477 41.4959 27.4147 41.76 1.44L0 0Z"/><path id="shape8" transform="translate(23.6885380397347, 22.9992646730257)" fill="#128e58" fill-rule="evenodd" stroke="#128e58" stroke-width="4.2336" stroke-linecap="square" stroke-linejoin="bevel" d="M0 0L0 40.32C24.4017 40.1257 39.8194 25.0555 39.6 0.72L0 0Z"/><path id="shape01" transform="matrix(-0.999998156502624 -0.00190627454907151 0.00190627468720488 -0.999998228965009 292.070566390851 683.354647667225)" fill="#5db5d8" fill-rule="evenodd" stroke="#5db5d8" stroke-width="4.2336" stroke-linecap="square" stroke-linejoin="bevel" d="M0 0L0 43.2C27.8061 42.604 42.4288 27.652 41.76 1.44Z"/><path id="shape02" transform="matrix(-0.999999853169262 -0.000490533298300321 0.0004905333355089 -0.999999929022589 344.295661291347 247.109726306133)" fill="#128e58" fill-rule="evenodd" stroke="#128e58" stroke-width="4.2336" stroke-linecap="square" stroke-linejoin="bevel" d="M0 0L0 40.32C24.4017 40.1257 39.8194 25.0555 39.6 0.72Z"/><path id="shape9" transform="translate(23.0038249373377, 24.3531757798069)" fill="none" stroke="#f9fef8" stroke-width="2.1168" stroke-linecap="square" stroke-linejoin="bevel" d="M0 0L9.36 17.3317C12.6 11.6518 15.84 5.97197 19.08 0.292107C12.765 0.194738 6.5378 0.097369 0 0Z"/><path id="shape10" transform="translate(69.3899999892478, 361.710029371487)" fill="none" stroke="#f9fef8" stroke-width="2.1168" stroke-linecap="square" stroke-linejoin="bevel" d="M11.1133 0L7.76823 6.11126L0.143804 5.74279L4.79348 12.0135L0 18.3284L7.38475 17.3279L11.0455 23.7628L14.2394 17.2837L22.0021 18.3284L17.7359 11.7485L22.05 5.38952L14.6708 6.11126L11.1688 0.0461949Z"/><path id="shape11" transform="translate(384.785940024773, 359.551549844497)" fill="none" stroke="#f9fef8" stroke-width="2.1168" stroke-linecap="square" stroke-linejoin="bevel" d="M4.81464 0C6.36383 8.97032 11.3359 13.8552 18.1346 16.56C13.2547 19.8879 6.85213 20.6591 2.14177 16.3554C-2.12756 10.0433 0.627184 4.22999 4.806 0.00113578"/><path id="shape03" transform="matrix(-0.999943793832222 -0.010599589913521 0.0105995901521506 -0.999943816343888 603.779105448577 679.431836056674)" fill="none" stroke="#f9fef8" stroke-width="2.1168" stroke-linecap="square" stroke-linejoin="bevel" d="M4.81464 0C6.36383 8.97032 11.3359 13.8552 18.1346 16.56C13.2547 19.8879 6.85213 20.6591 2.14177 16.3554C-2.12756 10.0433 0.627183 4.22999 4.806 0.00113578"/><path id="shape04" transform="matrix(0.999999982159182 0 0 0.999999972817389 270.254368315648 658.865673039053)" fill="none" stroke="#f9fef8" stroke-width="2.1168" stroke-linecap="square" stroke-linejoin="bevel" d="M11.1133 0L7.76823 6.11126L0.143804 5.74279L4.79348 12.0135L0 18.3284L7.38475 17.3279L11.0455 23.7628L14.2394 17.2837L22.0021 18.3284L17.7359 11.7485L22.05 5.38952L14.6708 6.11126L11.1688 0.0461949Z"/><path id="shape05" transform="matrix(-0.999998806387139 0.00153405733186619 -0.00153405729888467 -0.999998784887534 345.228739440424 245.611287337524)" fill="none" stroke="#f9fef8" stroke-width="2.1168" stroke-linecap="square" stroke-linejoin="bevel" d="M0 0L9.36 17.3317C12.6 11.6518 15.84 5.97197 19.08 0.292107C12.765 0.194738 6.5378 0.097369 0 0Z"/>
</svg>
