<?xml version="1.0" standalone="no"?>
<!DOCTYPE svg PUBLIC "-//W3C//DTD SVG 20010904//EN" "http://www.w3.org/TR/2001/REC-SVG-20010904/DTD/svg10.dtd">
<!-- Created using Krita: http://krita.org -->
<svg xmlns="http://www.w3.org/2000/svg" 
    xmlns:xlink="http://www.w3.org/1999/xlink"
    xmlns:krita="http://krita.org/namespaces/svg/krita"
    xmlns:sodipodi="http://sodipodi.sourceforge.net/DTD/sodipodi-0.dtd"
    width="359.28pt"
    height="259.92pt"
    viewBox="0 0 359.28 259.92">
<defs/>
<rect id="shape0" transform="matrix(0.00258440970611972 0.999996688303413 -0.999996721593526 0.00258440962008414 344.579873502981 13.6133360462457)" fill="#128e58" fill-rule="evenodd" stroke="#128e58" stroke-width="28.8" stroke-linecap="square" stroke-linejoin="bevel" width="231.84" height="330.48" rx="2.16" ry="2.16"/><rect id="shape3" transform="matrix(0.000912297600263179 0.999999568176279 -0.999999604434946 0.00091229756718447 337.940423920259 20.7355391686895)" fill="#4dce96" fill-rule="evenodd" stroke="#4dce96" stroke-width="4.2336" stroke-linecap="square" stroke-linejoin="bevel" width="218.16" height="316.8" rx="2.16" ry="2.16"/><path id="shape8" transform="matrix(0.999999999715471 0 0 1.00000005386727 19.3429535775253 18.1754477130084)" fill="#128e58" fill-rule="evenodd" stroke="#128e58" stroke-width="4.2336" stroke-linecap="square" stroke-linejoin="bevel" d="M0 0L0 40.32C24.4017 40.1257 39.8194 25.0555 39.6 0.72Z"/><path id="shape02" transform="matrix(-0.999999906819034 -0.000490533306748921 0.000490533361825906 -0.999999946245883 339.840907032646 241.509444955996)" fill="#128e58" fill-rule="evenodd" stroke="#128e58" stroke-width="4.2336" stroke-linecap="square" stroke-linejoin="bevel" d="M0 0L0 40.32C24.4017 40.1257 39.8194 25.0555 39.6 0.72Z"/><path id="shape9" transform="matrix(1.00000000928856 0 0 0.999999966087382 21.2219161091389 22.5712659120558)" fill="none" stroke="#f9fef8" stroke-width="2.1168" stroke-linecap="square" stroke-linejoin="bevel" d="M0 0L9.36 17.3317C12.6 11.6518 15.84 5.97197 19.08 0.292107C12.765 0.194738 6.5378 0.097369 0 0Z"/><path id="shape05" transform="matrix(-0.999998794598807 0.00153405732821093 -0.00153405728080068 -0.999998782504802 338.208735155487 236.431286308323)" fill="none" stroke="#f9fef8" stroke-width="2.1168" stroke-linecap="square" stroke-linejoin="bevel" d="M0 0L9.36 17.3317C12.6 11.6518 15.84 5.97197 19.08 0.292107C12.765 0.194738 6.5378 0.097369 0 0Z"/>
</svg>
