<?xml version="1.0" standalone="no"?>
<!DOCTYPE svg PUBLIC "-//W3C//DTD SVG 20010904//EN" "http://www.w3.org/TR/2001/REC-SVG-20010904/DTD/svg10.dtd">
<!-- Created using Krita: http://krita.org -->
<svg xmlns="http://www.w3.org/2000/svg"
     xmlns:xlink="http://www.w3.org/1999/xlink"
     xmlns:krita="http://krita.org/namespaces/svg/krita"
     xmlns:sodipodi="http://sodipodi.sourceforge.net/DTD/sodipodi-0.dtd"
     width="359.28pt"
     height="144pt"
     viewBox="0 0 359.28 144">
    <defs/>
    <rect id="shape2" transform="matrix(-0.000665728639194344 0.999999810727054 -0.999999786850879 -0.000665728655089412 344.957491105855 13.6121841636132)" fill="#3b8a80" fill-rule="evenodd" stroke="#3b8a80" stroke-width="28.8" stroke-linecap="square" stroke-linejoin="bevel" width="116.64" height="330.48" rx="1.08670807453416" ry="2.16"/><rect id="shape5" transform="matrix(-0.000720152452386133 0.999999721378567 -0.999999796336555 -0.000720152398404947 338.119029644529 20.2693043965798)" fill="#62d3c5" fill-rule="evenodd" stroke="#62d3c5" stroke-width="4.2336" stroke-linecap="square" stroke-linejoin="bevel" width="104.400006222725" height="316.799962234502" rx="1.03366342794778" ry="2.15999974250797"/><path id="shape8" transform="matrix(0.999999950492094 0 0 0.99999995634731 19.7041067950172 17.815444526702)" fill="#3b8a80" fill-rule="evenodd" stroke="#3b8a80" stroke-width="4.2336" stroke-linecap="square" stroke-linejoin="bevel" d="M0 0L0 28.8C17.7457 28.6612 28.9579 17.8968 28.7983 0.514286Z"/><path id="shape02" transform="matrix(-0.999999887430035 -0.000490533257406972 0.000490533352314945 -0.999999845657518 339.727895954755 126.781529135328)" fill="#3b8a80" fill-rule="evenodd" stroke="#3b8a80" stroke-width="4.2336" stroke-linecap="square" stroke-linejoin="bevel" d="M0 0L0 28.8C17.7457 28.6612 28.9579 17.8968 28.7983 0.514286Z"/><circle id="shape13" transform="matrix(0.999999967004405 0 0 0.999999925685563 19.7315652751398 18.4136402076946)" r="7.20000042915347" cx="7.20000042915347" cy="7.20000042915347" fill="none" stroke="#f9fef8" stroke-width="2.1168" stroke-linecap="square" stroke-linejoin="bevel"/><circle id="shape131" transform="matrix(0.999999998011588 0 0 0.999999981009701 324.875037883685 111.032937672315)" r="7.20000042915347" cx="7.20000042915347" cy="7.20000042915347" fill="none" stroke="#f9fef8" stroke-width="2.1168" stroke-linecap="square" stroke-linejoin="bevel"/>
</svg>