<?xml version="1.0" standalone="no"?>
<!DOCTYPE svg PUBLIC "-//W3C//DTD SVG 20010904//EN" "http://www.w3.org/TR/2001/REC-SVG-20010904/DTD/svg10.dtd">
<!-- Created using Krita: http://krita.org -->
<svg xmlns="http://www.w3.org/2000/svg" 
    xmlns:xlink="http://www.w3.org/1999/xlink"
    xmlns:krita="http://krita.org/namespaces/svg/krita"
    xmlns:sodipodi="http://sodipodi.sourceforge.net/DTD/sodipodi-0.dtd"
    width="359.28pt"
    height="259.92pt"
    viewBox="0 0 359.28 259.92">
<defs/>
<rect id="shape1" transform="matrix(-0.0017789709367673 0.999998467753553 -0.999998408665581 -0.00177897104188326 345.085955358891 14.334134792969)" fill="#3b8a80" fill-rule="evenodd" stroke="#3b8a80" stroke-width="28.8" stroke-linecap="square" stroke-linejoin="bevel" width="231.84" height="330.48" rx="2.16" ry="2.16"/><rect id="shape5" transform="matrix(-0.001860676959415 0.999998311149732 -0.999998311156232 -0.00186067695940291 338.24269512988 21.1749154501566)" fill="#62d3c5" fill-rule="evenodd" stroke="#62d3c5" stroke-width="4.2336" stroke-linecap="square" stroke-linejoin="bevel" width="218.16" height="316.8" rx="2.16" ry="2.16"/><path id="shape8" transform="matrix(0.999999947094457 0 0 1.00000000800834 19.3429525596795 18.1754468795018)" fill="#3b8a80" fill-rule="evenodd" stroke="#3b8a80" stroke-width="4.2336" stroke-linecap="square" stroke-linejoin="bevel" d="M0 0L0 40.32C24.4017 40.1257 39.8194 25.0555 39.6 0.72Z"/><path id="shape02" transform="matrix(-0.999999895425702 -0.000490533294748667 0.000490533356237096 -0.999999921782196 339.840903160725 241.509439047784)" fill="#3b8a80" fill-rule="evenodd" stroke="#3b8a80" stroke-width="4.2336" stroke-linecap="square" stroke-linejoin="bevel" d="M0 0L0 40.32C24.4017 40.1257 39.8194 25.0555 39.6 0.72Z"/><circle id="shape13" transform="matrix(0.999999971683668 0 0 1.00000001494959 19.1139561945818 19.1548830785917)" r="9.72" cx="9.72" cy="9.72" fill="none" stroke="#f9fef8" stroke-width="2.1168" stroke-linecap="square" stroke-linejoin="bevel"/><circle id="shape131" transform="matrix(0.999999971683668 0 0 1.00000001494959 320.148520401513 221.459445381762)" r="9.72" cx="9.72" cy="9.72" fill="none" stroke="#f9fef8" stroke-width="2.1168" stroke-linecap="square" stroke-linejoin="bevel"/>
</svg>
