<?xml version="1.0" standalone="no"?>
<!DOCTYPE svg PUBLIC "-//W3C//DTD SVG 20010904//EN" "http://www.w3.org/TR/2001/REC-SVG-20010904/DTD/svg10.dtd">
<!-- Created using Krita: http://krita.org -->
<svg xmlns="http://www.w3.org/2000/svg" 
    xmlns:xlink="http://www.w3.org/1999/xlink"
    xmlns:krita="http://krita.org/namespaces/svg/krita"
    xmlns:sodipodi="http://sodipodi.sourceforge.net/DTD/sodipodi-0.dtd"
    width="375.12pt"
    height="267.12pt"
    viewBox="0 0 375.12 267.12">
<defs/>
<rect id="shape0" transform="translate(-246.96, -30.24)" fill="#128e58" fill-rule="evenodd" stroke="#128e58" stroke-width="28.8" stroke-linecap="square" stroke-linejoin="bevel" width="231.84" height="330.48" rx="2.16" ry="2.16"/><rect id="shape1" transform="matrix(-0.00177897095271464 0.999998417629927 -0.999998417629927 -0.00177897095271464 346.165956842009 19.3741405885666)" fill="#3b8a80" fill-rule="evenodd" stroke="#3b8a80" stroke-width="28.8" stroke-linecap="square" stroke-linejoin="bevel" width="231.84" height="330.48" rx="2.16" ry="2.16"/><rect id="shape2" transform="translate(-249.12, 356.4)" fill="#5db5d8" fill-rule="evenodd" stroke="#5db5d8" stroke-width="28.8" stroke-linecap="square" stroke-linejoin="bevel" width="231.84" height="330.48" rx="2.16" ry="2.16"/><rect id="shape3" transform="translate(62.64, 355.68)" fill="#0e4469" fill-rule="evenodd" stroke="#0e4469" stroke-width="28.8" stroke-linecap="square" stroke-linejoin="bevel" width="231.84" height="330.48" rx="2.16" ry="2.16"/><rect id="shape4" transform="translate(-240.269116896681, -22.2944155147714)" fill="#4dce96" fill-rule="evenodd" stroke="#4dce96" stroke-width="4.2336" stroke-linecap="square" stroke-linejoin="bevel" width="218.16" height="316.8" rx="2.16" ry="2.16"/><rect id="shape5" transform="matrix(-0.00186067688086276 0.999998268939278 -0.999998268939278 -0.00186067688086276 339.806220888615 27.2949200871895)" fill="#62d3c5" fill-rule="evenodd" stroke="#62d3c5" stroke-width="4.2336" stroke-linecap="square" stroke-linejoin="bevel" width="218.16" height="316.8" rx="2.16" ry="2.16"/><rect id="shape6" transform="translate(-243.36, 363.6)" fill="#86dafb" fill-rule="evenodd" stroke="#86dafb" stroke-width="4.2336" stroke-linecap="square" stroke-linejoin="bevel" width="218.16" height="316.8" rx="2.16" ry="2.16"/><rect id="shape7" transform="translate(70.56, 361.44)" fill="#0d6aaa" fill-rule="evenodd" stroke="#0d6aaa" stroke-width="4.2336" stroke-linecap="square" stroke-linejoin="bevel" width="218.16" height="316.8" rx="2.16" ry="2.16"/><path id="shape8" transform="translate(68.5925280288545, 358.91481180288)" fill="#0e4469" fill-rule="evenodd" stroke="#0e4469" stroke-width="4.2336" stroke-linecap="square" stroke-linejoin="bevel" d="M1.16662e-05 0.50913L0 44.8023C27.4525 44.961 43.5692 27.9134 43.7841 0L1.16662e-05 0.50913Z"/><path id="shape0" transform="matrix(-0.999999358110215 -0.00111589368770427 0.00111589372204284 -0.999999388882902 291.237574855884 680.268882358982)" fill="#0e4469" fill-rule="evenodd" stroke="#0e4469" stroke-width="4.2336" stroke-linecap="square" stroke-linejoin="bevel" d="M1.16662e-05 0.50913L0 44.8023C28.7459 44.7137 43.9265 29.8991 43.7841 0Z"/><path id="shape9" transform="translate(-245.25420742124, 359.669309790826)" fill="#5db5d8" fill-rule="evenodd" stroke="#5db5d8" stroke-width="4.2336" stroke-linecap="square" stroke-linejoin="bevel" d="M0 0L0 43.2C25.6701 43.0477 41.4959 27.4147 41.76 1.44L0 0Z"/><path id="shape10" transform="translate(-242.100006237867, -25.0200048615827)" fill="#128e58" fill-rule="evenodd" stroke="#128e58" stroke-width="4.2336" stroke-linecap="square" stroke-linejoin="bevel" d="M0 0L0 40.32C24.4017 40.1257 39.8194 25.0555 39.6 0.72L0 0Z"/><path id="shape11" transform="translate(21.1033097427183, 23.6300030771365)" fill="#3b8a80" fill-rule="evenodd" stroke="#3b8a80" stroke-width="4.2336" stroke-linecap="square" stroke-linejoin="bevel" d="M2.31782e-05 0L0 41.4C26.2317 41.3254 40.3148 26.2215 40.32 1.07999L2.31782e-05 0Z"/><path id="shape01" transform="matrix(-0.999998156502624 -0.00190627454907151 0.00190627468720488 -0.999998228965009 -23.2894336091489 683.354647667225)" fill="#5db5d8" fill-rule="evenodd" stroke="#5db5d8" stroke-width="4.2336" stroke-linecap="square" stroke-linejoin="bevel" d="M0 0L0 43.2C27.8061 42.604 42.4288 27.652 41.76 1.44Z"/><path id="shape02" transform="matrix(-0.999998666846313 -0.00162039821295005 0.00162039826171813 -0.999998696942761 -20.1339736223424 297.16273749709)" fill="#128e58" fill-rule="evenodd" stroke="#128e58" stroke-width="4.2336" stroke-linecap="square" stroke-linejoin="bevel" d="M0 0L0 40.32C25.2566 39.5872 39.9392 24.8344 39.6 0.72Z"/><path id="shape03" transform="matrix(-0.999999691295657 -0.000773110955673515 0.000773110989236504 -0.999999734707358 341.08842522633 248.229779317217)" fill="#3b8a80" fill-rule="evenodd" stroke="#3b8a80" stroke-width="4.2336" stroke-linecap="square" stroke-linejoin="bevel" d="M2.31782e-05 0L0 41.4C26.2317 41.3254 40.3148 26.2215 40.32 1.07999Z"/><path id="shape12" transform="translate(-243.369035804681, -22.3098492810788)" fill="none" stroke="#f9fef8" stroke-width="2.1168" stroke-linecap="square" stroke-linejoin="bevel" d="M0 0L9.36 16.9282C12.6 11.3805 15.84 5.83293 19.08 0.285306C12.765 0.190204 6.5378 0.095102 0 0Z"/><path id="shape04" transform="matrix(-0.999993354633015 0.00364735776001842 -0.00364735778129307 -0.999993360466119 -19.1860150239017 293.202181156667)" fill="none" stroke="#f9fef8" stroke-width="2.1168" stroke-linecap="square" stroke-linejoin="bevel" d="M0 0L9.3133 16.4459L18.9848 0.277177Z"/><circle id="shape13" transform="translate(21.6187335474675, 24.6057296544036)" r="9.72" cx="9.72" cy="9.72" fill="none" stroke="#f9fef8" stroke-width="2.1168" stroke-linecap="square" stroke-linejoin="bevel"/><path id="shape14" transform="translate(-245.970000010752, 361.710029371487)" fill="none" stroke="#f9fef8" stroke-width="2.1168" stroke-linecap="square" stroke-linejoin="bevel" d="M11.1133 0L7.76823 6.11126L0.143804 5.74279L4.79348 12.0135L0 18.3284L7.38475 17.3279L11.0455 23.7628L14.2394 17.2837L22.0021 18.3284L17.7359 11.7485L22.05 5.38952L14.6708 6.11126L11.1688 0.0461949Z"/><path id="shape15" transform="translate(69.4259400247726, 359.551549844497)" fill="none" stroke="#f9fef8" stroke-width="2.1168" stroke-linecap="square" stroke-linejoin="bevel" d="M4.81464 0C6.36383 8.97032 11.3359 13.8552 18.1346 16.56C13.2547 19.8879 6.85213 20.6591 2.14177 16.3554C-2.12756 10.0433 0.627184 4.22999 4.806 0.00113578"/><path id="shape05" transform="matrix(-0.999943793832222 -0.010599589913521 0.0105995901521506 -0.999943816343888 288.419105448577 679.431836056674)" fill="none" stroke="#f9fef8" stroke-width="2.1168" stroke-linecap="square" stroke-linejoin="bevel" d="M4.81464 0C6.36383 8.97032 11.3359 13.8552 18.1346 16.56C13.2547 19.8879 6.85213 20.6591 2.14177 16.3554C-2.12756 10.0433 0.627183 4.22999 4.806 0.00113578"/><path id="shape06" transform="matrix(0.999999982159182 0 0 0.999999972817389 -45.105631684352 658.865673039053)" fill="none" stroke="#f9fef8" stroke-width="2.1168" stroke-linecap="square" stroke-linejoin="bevel" d="M11.1133 0L7.76823 6.11126L0.143804 5.74279L4.79348 12.0135L0 18.3284L7.38475 17.3279L11.0455 23.7628L14.2394 17.2837L22.0021 18.3284L17.7359 11.7485L22.05 5.38952L14.6708 6.11126L11.1688 0.0461949Z"/><circle id="shape07" transform="matrix(0.999999999282876 0 0 1.00000001005135 321.695480086445 226.677473428284)" r="9.72" cx="9.72" cy="9.72" fill="none" stroke="#f9fef8" stroke-width="2.1168" stroke-linecap="square" stroke-linejoin="bevel"/>
</svg>
